<svg xmlns="http://www.w3.org/2000/svg" width="1200" height="630" viewBox="0 0 1200 630">
  <defs>
    <linearGradient id="grad" x1="0%" y1="0%" x2="100%" y2="100%">
      <stop offset="0%" style="stop-color:#ffffff;stop-opacity:1" />
      <stop offset="100%" style="stop-color:#f97316;stop-opacity:0.1" />
    </linearGradient>
  </defs>
  <rect width="1200" height="630" fill="url(#grad)" />
  <path d="M0 50 L1200 50 M0 150 L1200 150 M0 250 L1200 250 M0 350 L1200 350 M0 450 L1200 450 M0 550 L1200 550" stroke="#f97316" stroke-opacity="0.05" stroke-width="1"/>
  <path d="M50 0 L50 630 M150 0 L150 630 M250 0 L250 630 M350 0 L350 630 M450 0 L450 630 M550 0 L550 630 M650 0 L650 630 M750 0 L750 630 M850 0 L850 630 M950 0 L950 630 M1050 0 L1050 630 M1150 0 L1150 630" stroke="#f97316" stroke-opacity="0.05" stroke-width="1"/>

  <!-- Icon: Links (Chain) -->
  <rect x="450" y="100" width="300" height="300" rx="60" fill="#f97316"/>
  <path d="M520 250H680M560 200V300M640 200V300" stroke="white" stroke-width="25" stroke-linecap="round"/>
  
  <text x="600" y="500" dominant-baseline="central" text-anchor="middle" fill="#f97316" font-family="ui-monospace, SFMono-Regular, Menlo, Monaco, Consolas, monospace" font-weight="900" font-size="64">>_ liên_kết</text>
  <text x="600" y="560" dominant-baseline="central" text-anchor="middle" fill="#44403c" font-family="Be Vietnam Pro, sans-serif" font-weight="700" font-size="24">TUAN TQ | TÀI NGUYÊN CHỌN LỌC</text>
  <rect x="500" y="590" width="200" height="4" fill="#f97316" rx="2"/>
</svg>
